<svg xmlns="http://www.w3.org/2000/svg" xmlns:xlink="http://www.w3.org/1999/xlink" viewBox="0 0 40 40"><defs><style>.cls-1{fill:none;}.cls-2{clip-path:url(#clip-path);}.cls-3{fill:#c7231a;fill-rule:evenodd;}</style><clipPath id="clip-path" transform="translate(0 -0.52)"><rect class="cls-1" width="40" height="41"/></clipPath></defs><title>Asset 1</title><g id="Layer_2" data-name="Layer 2"><g id="Layer_1-2" data-name="Layer 1"><g class="cls-2"><path class="cls-3" d="M13.72.52A8.5,8.5,0,0,0,7.7,3L0,10.71v3.52a8.52,8.52,0,0,0,2.77,6.29A8.48,8.48,0,0,0,0,26.8v3.53L7.7,38a8.49,8.49,0,0,0,12,0l.27-.28a8.51,8.51,0,0,0,12,.55A2.37,2.37,0,0,0,32.3,38L40,30.33V26.8a8.48,8.48,0,0,0-2.77-6.28A8.5,8.5,0,0,0,40,14.23V10.71L32.3,3a8.5,8.5,0,0,0-12,0L20,3.29A8.44,8.44,0,0,0,13.72.52Zm12,20-.28-.27L20,14.77l-5.48,5.48-.28.27a2.37,2.37,0,0,1,.28.27L20,26.26l5.48-5.47A2.37,2.37,0,0,1,25.76,20.52Zm-3.54,9.81V32a4.07,4.07,0,0,0,6.94,2.87l6.4-6.39V26.8a4.07,4.07,0,0,0-6.94-2.87Zm-4.44,0-6.4-6.4A4.07,4.07,0,0,0,4.44,26.8v1.69l6.4,6.39A4.07,4.07,0,0,0,17.78,32ZM17.78,9v1.69l-6.4,6.39a4.06,4.06,0,0,1-6.94-2.87V12.55l6.4-6.4A4.07,4.07,0,0,1,17.78,9ZM28.62,17.1l-6.4-6.39V9a4.07,4.07,0,0,1,6.94-2.87l6.4,6.4v1.68a4.06,4.06,0,0,1-6.94,2.87Z" transform="translate(0 -0.52)"/></g></g></g></svg>